<svg width="53" height="53" viewBox="0 0 53 53" fill="none" xmlns="http://www.w3.org/2000/svg">
<rect width="53" height="53" rx="16" fill="black"/>
<g filter="url(#filter0_d_3_49)">
<path d="M27.8011 42.27C26.6311 42.252 25.6771 42.126 24.9391 41.892C24.2191 41.658 23.6431 41.334 23.2111 40.92C22.7971 40.488 22.5091 39.975 22.3471 39.381C22.2031 38.769 22.1311 38.085 22.1311 37.329V31.696L26.1541 31.048V36.519C26.1541 36.879 26.1811 37.203 26.2351 37.491C26.2891 37.779 26.3881 38.022 26.5321 38.22C26.6941 38.418 26.9191 38.58 27.2071 38.706C27.4951 38.832 27.8821 38.913 28.3681 38.949L27.8011 42.27Z" fill="white"/>
<path d="M10 13.943L14.023 13.295V17.48H18.856V20.828H14.023V25.823C14.023 26.669 14.167 27.344 14.455 27.848C14.761 28.352 15.364 28.604 16.264 28.604C16.696 28.604 17.137 28.568 17.587 28.496C18.055 28.406 18.478 28.289 18.856 28.145L19.423 31.277C18.937 31.475 18.397 31.646 17.803 31.79C17.209 31.934 16.48 32.006 15.616 32.006C14.518 32.006 13.609 31.862 12.889 31.574C12.169 31.268 11.593 30.854 11.161 30.332C10.729 29.792 10.423 29.144 10.243 28.388C10.081 27.632 10 26.795 10 25.877V13.943Z" fill="white"/>
<path d="M26.1551 31.682H22.1321V17.48H26.1551V31.682ZM26.5331 13.376C26.5331 14.114 26.2901 14.699 25.8041 15.131C25.3361 15.545 24.7781 15.752 24.1301 15.752C23.4821 15.752 22.9151 15.545 22.4291 15.131C21.9611 14.699 21.7271 14.114 21.7271 13.376C21.7271 12.638 21.9611 12.062 22.4291 11.648C22.9151 11.216 23.4821 11 24.1301 11C24.7781 11 25.3361 11.216 25.8041 11.648C26.2901 12.062 26.5331 12.638 26.5331 13.376Z" fill="white"/>
<path fill-rule="evenodd" clip-rule="evenodd" d="M43.2208 24.554C43.2208 25.67 43.0588 26.696 42.7348 27.632C42.4108 28.55 41.9428 29.342 41.3308 30.008C40.7188 30.656 39.9808 31.16 39.1168 31.52C38.2708 31.88 37.3168 32.06 36.2548 32.06C35.2108 32.06 34.2568 31.88 33.3928 31.52C32.5468 31.16 31.8178 30.656 31.2058 30.008C30.5938 29.342 30.1168 28.55 29.7748 27.632C29.4328 26.696 29.2618 25.67 29.2618 24.554C29.2618 23.438 29.4328 22.421 29.7748 21.503C30.1348 20.585 30.6208 19.802 31.2328 19.154C31.8628 18.506 32.6008 18.002 33.4468 17.642C34.3108 17.282 35.2468 17.102 36.2548 17.102C37.2808 17.102 38.2168 17.282 39.0628 17.642C39.9268 18.002 40.6648 18.506 41.2768 19.154C41.8888 19.802 42.3658 20.585 42.7078 21.503C43.0498 22.421 43.2208 23.438 43.2208 24.554ZM38.3608 21.638C38.8648 22.34 39.1168 23.312 39.1168 24.554C39.1168 25.796 38.8648 26.786 38.3608 27.524C37.8748 28.244 37.1728 28.604 36.2548 28.604C35.3368 28.604 34.6258 28.244 34.1218 27.524C33.6178 26.786 33.3658 25.796 33.3658 24.554C33.3658 23.312 33.6178 22.34 34.1218 21.638C34.6258 20.918 35.3368 20.558 36.2548 20.558C37.1728 20.558 37.8748 20.918 38.3608 21.638Z" fill="white"/>
</g>
<g filter="url(#filter1_d_3_49)">
<path d="M31 35.464H43V38.44H31V35.464Z" fill="white"/>
</g>
<defs>
<filter id="filter0_d_3_49" x="10" y="11" width="34.7207" height="32.77" filterUnits="userSpaceOnUse" color-interpolation-filters="sRGB">
<feFlood flood-opacity="0" result="BackgroundImageFix"/>
<feColorMatrix in="SourceAlpha" type="matrix" values="0 0 0 0 0 0 0 0 0 0 0 0 0 0 0 0 0 0 127 0" result="hardAlpha"/>
<feOffset dx="1.5" dy="1.5"/>
<feComposite in2="hardAlpha" operator="out"/>
<feColorMatrix type="matrix" values="0 0 0 0 0 0 0 0 0 1 0 0 0 0 0.04 0 0 0 1 0"/>
<feBlend mode="normal" in2="BackgroundImageFix" result="effect1_dropShadow_3_49"/>
<feBlend mode="normal" in="SourceGraphic" in2="effect1_dropShadow_3_49" result="shape"/>
</filter>
<filter id="filter1_d_3_49" x="31" y="35.464" width="13.5" height="4.476" filterUnits="userSpaceOnUse" color-interpolation-filters="sRGB">
<feFlood flood-opacity="0" result="BackgroundImageFix"/>
<feColorMatrix in="SourceAlpha" type="matrix" values="0 0 0 0 0 0 0 0 0 0 0 0 0 0 0 0 0 0 127 0" result="hardAlpha"/>
<feOffset dx="1.5" dy="1.5"/>
<feComposite in2="hardAlpha" operator="out"/>
<feColorMatrix type="matrix" values="0 0 0 0 0 0 0 0 0 1 0 0 0 0 0.04 0 0 0 1 0"/>
<feBlend mode="normal" in2="BackgroundImageFix" result="effect1_dropShadow_3_49"/>
<feBlend mode="normal" in="SourceGraphic" in2="effect1_dropShadow_3_49" result="shape"/>
</filter>
</defs>
</svg>
